<svg width="130" height="130" viewBox="0 0 130 130" fill="none" xmlns="http://www.w3.org/2000/svg">
<g clip-path="url(#clip0_140_2)">
<path d="M33.5275 106.167C32.536 105.176 30.9286 105.176 29.937 106.167L20.3148 115.79C19.3233 116.782 19.3233 118.389 20.3148 119.38C20.8104 119.876 21.4601 120.124 22.1099 120.124C22.7596 120.124 23.4094 119.876 23.9053 119.38L33.5275 109.758C34.519 108.767 34.519 107.159 33.5275 106.167Z" fill="black"/>
<path d="M26.8 99.7699C26.3148 98.4541 24.8541 97.7815 23.5394 98.2667L11.3565 102.761C10.041 103.246 9.36786 104.706 9.85333 106.021C10.2316 107.047 11.2026 107.682 12.2355 107.682C12.5272 107.682 12.8243 107.632 13.114 107.525L25.2969 103.031C26.6122 102.545 27.2855 101.085 26.8 99.7699Z" fill="black"/>
<path d="M39.925 112.895C38.6095 112.41 37.1495 113.083 36.6643 114.398L32.1707 126.582C31.6855 127.897 32.3586 129.357 33.674 129.842C33.9638 129.949 34.2606 130 34.5523 130C35.5852 130 36.5564 129.365 36.9347 128.339L41.4283 116.156C41.9136 114.84 41.2405 113.38 39.925 112.895Z" fill="black"/>
<path d="M100.061 106.167C99.0697 105.176 97.4622 105.176 96.4707 106.167C95.4792 107.159 95.4792 108.766 96.4707 109.758L106.093 119.38C106.589 119.876 107.238 120.124 107.888 120.124C108.538 120.124 109.188 119.876 109.683 119.381C110.675 118.389 110.675 116.782 109.683 115.79L100.061 106.167Z" fill="black"/>
<path d="M118.648 102.76L106.458 98.2664C105.143 97.7817 103.683 98.4548 103.198 99.7703C102.713 101.086 103.386 102.545 104.702 103.031L116.892 107.525C117.182 107.631 117.478 107.682 117.77 107.682C118.803 107.682 119.774 107.046 120.152 106.021C120.637 104.705 119.964 103.246 118.648 102.76Z" fill="black"/>
<path d="M93.3415 114.4C92.8571 113.084 91.3976 112.41 90.0819 112.894C88.7661 113.379 88.0923 114.838 88.5767 116.154L93.0633 128.337C93.4413 129.364 94.4125 130 95.4459 130C95.7371 130 96.0337 129.949 96.3229 129.842C97.6387 129.358 98.3125 127.899 97.8281 126.583L93.3415 114.4Z" fill="black"/>
<path d="M93.8346 98.5953C94.1969 98.7748 94.5816 98.8601 94.9601 98.8601C95.8945 98.8601 96.7938 98.3421 97.2369 97.4481L97.244 97.4337C97.8669 96.1773 97.3496 94.6613 96.0933 94.0384C94.8367 93.4161 93.31 93.9366 92.6874 95.1929C92.0648 96.4493 92.5782 97.9725 93.8346 98.5953Z" fill="black"/>
<path d="M88.4002 102.282C87.6015 101.13 86.0196 100.843 84.8671 101.642C81.6809 103.851 78.3742 105.596 75.0328 106.832C71.2722 108.233 68.0839 108.886 64.999 108.886C61.914 108.886 58.7257 108.233 54.9618 106.83C39.78 101.195 26.3009 85.1406 24.0444 70.8695C24.0355 70.7791 24.0216 70.6903 24.0033 70.6029C23.8121 69.3159 23.711 68.0438 23.711 66.7961V52.297C29.8035 46.524 34.1826 44.5565 40.871 42.6743C44.3914 41.6881 46.0411 42.1774 49.3271 43.1521C50.1452 43.3948 51.0727 43.6698 52.1084 43.941C74.3255 49.7534 83.2046 50.7855 100.894 52.8417C102.601 53.0402 104.393 53.2484 106.287 53.4714V66.7961C106.287 72.6502 104.009 79.4599 99.8732 85.9714C99.1214 87.1548 99.4716 88.724 100.655 89.4758C101.077 89.7439 101.548 89.8719 102.014 89.8719C102.854 89.8719 103.676 89.4552 104.16 88.6937C107.302 83.7469 109.487 78.5893 110.574 73.663H112.274C119.863 73.663 123.957 66.6521 123.957 60.0557C123.957 57.1632 123.185 54.4667 121.783 52.4628C120.075 50.0213 117.5 48.6766 114.532 48.6766H111.104L109.756 36.2443C109.32 32.174 109.593 31.7489 110.954 30.4101C111.478 29.8939 112.07 29.3777 112.696 28.831C115.96 25.984 120.43 22.085 121.011 12.533C121.06 11.7236 120.72 10.939 120.095 10.4223C119.469 9.90562 118.635 9.71874 117.849 9.91908C116.49 10.2659 115.242 10.6016 114.142 10.8979C106.068 13.0713 104.149 13.5878 96.5323 8.89075C84.0777 1.21161 72.9155 -1.45364 62.4084 0.742142C53.4864 2.60683 46.9978 7.56714 41.7841 11.5527C41.3649 11.8731 40.9579 12.1842 40.5613 12.4848C36.3175 11.3107 32.0168 11.8526 28.3182 14.0562C23.8837 16.6981 20.7535 21.5358 19.9451 26.9935C18.7274 35.1403 18.64 38.285 18.6339 48.6771H15.4738C12.5044 48.6771 9.92747 50.0218 8.21817 52.4631C6.81509 54.4672 6.04245 57.1642 6.04245 60.0572C6.04245 66.6534 10.1392 73.6638 17.7315 73.6638H19.4281C20.8414 80.0404 24.0959 86.791 28.826 92.9644C35.4407 101.598 44.0951 108.213 53.1916 111.59C57.5377 113.21 61.2894 113.964 64.999 113.964C68.7085 113.964 72.4605 113.21 76.8 111.592C80.5355 110.211 84.223 108.267 87.7599 105.815C88.9124 105.016 89.199 103.435 88.4002 102.282ZM111.365 66.7966V53.7547H114.532C115.849 53.7547 116.861 54.2844 117.623 55.3741C118.422 56.5157 118.88 58.2222 118.88 60.0562C118.88 63.4847 117.12 68.5856 112.274 68.5856H111.306C111.344 67.9826 111.365 67.3857 111.365 66.7966ZM24.9676 27.7405C25.5551 23.7725 27.7794 20.2876 30.9169 18.4181C32.8656 17.2572 36.0521 16.1878 40.1682 17.6863C40.969 17.9776 41.8613 17.8483 42.546 17.3423C43.2963 16.7877 44.0596 16.2043 44.8675 15.5865C54.8249 7.97441 68.4625 -2.45073 93.8673 13.213C103.351 19.061 107.146 18.0393 115.462 15.8013C115.463 15.8011 115.464 15.8006 115.466 15.8001C114.411 20.5968 111.944 22.7497 109.358 25.0047C108.702 25.5772 108.024 26.1691 107.392 26.7919C104.33 29.8032 104.223 32.2633 104.707 36.7887L105.958 48.3204C104.399 48.1376 102.911 47.9644 101.48 47.7983C84.0265 45.7694 75.2657 44.7512 53.3937 39.0289C52.4375 38.7788 51.5904 38.5275 50.7711 38.2845C48.5611 37.6289 46.6413 37.0591 44.3109 37.0591C42.9066 37.0591 41.3529 37.266 39.4976 37.786C33.4499 39.488 28.9275 41.3369 23.7171 45.535C23.7489 37.6675 23.9291 34.6886 24.9676 27.7405ZM17.7315 68.5856C12.8809 68.5856 11.1203 63.4852 11.1203 60.0569C11.1203 58.2232 11.5789 56.517 12.3779 55.3751C13.1414 54.2849 14.154 53.755 15.4738 53.755H18.6332V66.7969C18.6332 67.3862 18.6547 67.9834 18.6931 68.5859H17.7315V68.5856Z" fill="black"/>
<path d="M57.2017 99.2922H72.8035C76.717 99.2922 79.9012 96.105 79.9012 92.1874C79.9012 83.9703 73.2161 77.2849 64.9992 77.2849C56.7823 77.2849 50.0969 83.97 50.0969 92.1874C50.0969 96.105 53.2842 99.2922 57.2017 99.2922ZM64.9992 82.3625C70.4163 82.3625 74.8236 86.7698 74.8236 92.1872C74.8236 93.3049 73.9174 94.2144 72.8038 94.2144H57.202C56.1033 94.2144 55.175 93.2861 55.175 92.1872C55.1745 86.7698 59.5818 82.3625 64.9992 82.3625Z" fill="black"/>
<path d="M90.4015 74.3346C91.3148 74.3346 92.1977 73.8402 92.6517 72.9752C93.3034 71.7336 92.8253 70.199 91.5837 69.5472L85.1617 66.1761L91.5837 62.805C92.8253 62.1532 93.3034 60.6186 92.6517 59.377C91.9999 58.1354 90.465 57.6573 89.2237 58.309L78.5195 63.9282C77.6839 64.3667 77.1606 65.2326 77.1606 66.1761C77.1606 67.1198 77.6839 67.9854 78.5195 68.4239L89.2237 74.0431C89.6002 74.2409 90.0037 74.3346 90.4015 74.3346Z" fill="black"/>
<path d="M37.3463 72.9748C37.8003 73.8401 38.6828 74.3347 39.5967 74.3347C39.994 74.3347 40.3977 74.241 40.774 74.0437L51.4856 68.4245C52.3214 67.986 52.845 67.1202 52.845 66.1762C52.845 65.2324 52.3214 64.3663 51.4856 63.9278L40.774 58.3086C39.5327 57.6574 37.9978 58.1357 37.3463 59.3776C36.695 60.6192 37.1734 62.154 38.4152 62.8053L44.8408 66.1762L38.4152 69.547C37.1734 70.1983 36.6948 71.7332 37.3463 72.9748Z" fill="black"/>
</g>
<defs>
<clipPath id="clip0_140_2">
<rect width="130" height="130" fill="white"/>
</clipPath>
</defs>
</svg>
