<svg width="126" height="126" viewBox="0 0 126 126" fill="none" xmlns="http://www.w3.org/2000/svg">
<path d="M125.554 105.638L122.609 92.6786C118.063 72.6748 108.961 53.577 96.2881 37.4489C93.8344 34.3248 90.1456 32.5312 86.1705 32.5312C80.0117 32.5312 74.698 36.9208 73.5341 42.9698L73.4569 43.368L69.0938 37.912V0.03125H65.0312V14.25H60.9688V0.03125H56.9062V37.912L52.5431 43.3659L52.4659 42.9678C51.3041 36.9208 45.9883 32.5312 39.8295 32.5312C35.8523 32.5312 32.1656 34.3248 29.7119 37.4489C17.0389 53.577 7.93687 72.6748 3.39094 92.6786L0.445625 105.64C0.169375 106.849 0.03125 108.09 0.03125 109.327C0.03125 118.502 7.49609 125.969 16.6733 125.969H21.2253C26.4659 125.969 31.2536 123.314 34.0303 118.872L36.5084 114.909C38.5377 111.659 42.0375 109.719 45.8684 109.719C54.1945 109.719 60.9688 102.945 60.9688 94.6184C60.9688 89.6825 60.4975 84.7242 59.5652 79.8777L55.5291 58.8887L63 49.9228L70.473 58.8887L66.4348 79.8797C65.5025 84.7242 65.0312 89.6845 65.0312 94.6184C65.0312 102.945 71.8055 109.719 80.1316 109.719C83.9625 109.719 87.4623 111.659 89.4916 114.909L91.9697 118.872C94.7464 123.314 99.5341 125.969 104.775 125.969H109.327C118.504 125.969 125.969 118.502 125.969 109.327C125.969 108.09 125.831 106.849 125.554 105.638V105.638ZM65.0312 30.5H60.9688V26.4375H65.0312V30.5ZM65.0312 18.3125V22.375H60.9688V18.3125H65.0312ZM45.8684 105.656C40.6278 105.656 35.8402 108.311 33.0634 112.753L30.5853 116.716C28.5561 119.966 25.0563 121.906 21.2253 121.906H16.6733C9.73656 121.906 4.09375 116.263 4.09375 109.327C4.09375 108.392 4.19938 107.454 4.40656 106.54L5.33484 102.455L11.5627 105.569C16.2487 107.911 20.1203 111.783 22.4644 116.469L22.5903 116.72L26.2242 114.902L26.0983 114.651C25.0502 112.552 23.7339 110.598 22.2064 108.829L29.6875 103.219L27.25 99.9688L19.3098 105.924C17.5102 104.356 15.5216 103.005 13.3806 101.935L6.26312 98.3763L7.35391 93.5805C11.7678 74.1597 20.6038 55.6184 32.9091 39.9595C34.2192 38.2898 36.0514 37.2011 38.0827 36.7928L37.7292 38.3833C35.7752 47.1786 31.3755 55.1939 25.0034 61.5659L27.8756 64.4381C29.8764 62.4373 31.6761 60.272 33.3052 57.995L39.4375 62.5937L41.875 59.3438L35.5375 54.5906C38.3812 49.868 40.4816 44.7106 41.6922 39.2648L42.2061 36.9553C45.3464 37.843 47.8367 40.4084 48.4786 43.7377L52.7747 66.0692L49.0128 68.7566C43.1202 72.9633 36.1794 75.1875 28.938 75.1875H28.4688V79.25H28.938C31.7472 79.25 34.5117 78.9311 37.2052 78.342L34.7067 84.5881L38.4787 86.0953L42.1594 76.8938C45.4033 75.7095 48.503 74.1089 51.3691 72.0594L53.6136 70.4547L55.5737 80.6414C56.4573 85.2402 56.9062 89.9425 56.9062 94.6184C56.9062 100.704 51.9541 105.656 45.8684 105.656V105.656ZM64.56 45.45C63.7881 44.5238 62.2119 44.5238 61.44 45.45L54.5358 53.7334L53.5506 48.6086L60.5239 39.8925C60.8123 39.533 60.9688 39.0861 60.9688 38.625V34.5625H65.0312V38.625C65.0312 39.0861 65.1877 39.533 65.4761 39.8945L72.4494 48.6106L71.4642 53.7355L64.56 45.45ZM109.327 121.906H104.775C100.944 121.906 97.4439 119.966 95.4147 116.716L92.9366 112.753C90.1598 108.311 85.3722 105.656 80.1316 105.656C74.0459 105.656 69.0938 100.704 69.0938 94.6184C69.0938 89.9405 69.5427 85.2402 70.4242 80.6434L72.3844 70.4567L74.6289 72.0614C77.495 74.1089 80.5947 75.7095 83.8386 76.8958L87.5192 86.0973L91.2913 84.5902L88.7928 78.3441C91.4883 78.9311 94.2508 79.25 97.062 79.25H97.5312V75.1875H97.062C89.8227 75.1875 82.8819 72.9633 76.9913 68.7566L73.2294 66.0692L77.5255 43.7377C78.1653 40.4064 80.6577 37.843 83.798 36.9553L84.3119 39.2628C85.5225 44.7106 87.6228 49.868 90.4666 54.5906L84.125 59.3438L86.5625 62.5937L92.6969 57.993C94.328 60.27 96.1256 62.4353 98.1264 64.4361L100.999 61.5639C94.6266 55.1919 90.2269 47.1766 88.2728 38.3812L87.9194 36.7908C89.9506 37.1991 91.7828 38.2898 93.095 39.9575C105.398 55.6164 114.234 74.1577 118.648 93.5784L119.739 98.3742L112.621 101.933C110.48 103.003 108.492 104.356 106.692 105.922L98.75 99.9688L96.3125 103.219L103.794 108.831C102.266 110.602 100.952 112.556 99.9017 114.653L99.7758 114.905L103.41 116.723L103.536 116.471C105.878 111.783 109.751 107.913 114.437 105.571L120.665 102.457L121.593 106.54C121.801 107.454 121.906 108.392 121.906 109.327C121.906 116.263 116.263 121.906 109.327 121.906V121.906Z" fill="black"/>
</svg>
