<svg width="317" height="369" viewBox="0 0 317 369" fill="none" xmlns="http://www.w3.org/2000/svg">
<g opacity="0.5">
<path d="M158.194 368.814C245.563 368.814 316.389 297.988 316.389 210.62C316.389 123.251 245.563 52.4253 158.194 52.4253C70.826 52.4253 0 123.251 0 210.62C0 297.988 70.826 368.814 158.194 368.814Z" fill="#F0ABF4"/>
</g>
<g opacity="0.5">
<path d="M240.958 323.472C240.998 328.461 239.882 333.391 237.697 337.876C235.512 342.361 232.317 346.278 228.364 349.322H209.112C213.066 346.279 216.261 342.362 218.446 337.877C220.632 333.391 221.747 328.461 221.706 323.472L220.73 178.308C220.701 173.665 220.304 169.031 219.542 164.451H238.794C239.556 169.031 239.953 173.665 239.982 178.308L240.958 323.472Z" fill="#F0ABF4"/>
</g>
<path d="M256.033 252.051C253.234 252.051 250.815 251.545 248.777 250.535C246.738 249.524 245.166 248.137 244.06 246.375C242.954 244.613 242.401 242.6 242.401 240.336C242.401 238.073 242.954 236.06 244.06 234.298C245.166 232.536 246.738 231.149 248.777 230.138C250.815 229.128 253.234 228.622 256.033 228.622C258.832 228.622 261.251 229.128 263.29 230.138C265.329 231.149 266.901 232.536 268.007 234.298C269.112 236.06 269.665 238.073 269.665 240.336C269.665 242.6 269.112 244.613 268.007 246.375C266.901 248.137 265.329 249.524 263.29 250.535C261.251 251.545 258.832 252.051 256.033 252.051ZM256.033 248.941C258.331 248.941 260.271 248.556 261.852 247.787C263.432 247.027 264.629 245.995 265.441 244.69C266.253 243.395 266.659 241.943 266.659 240.336C266.659 238.73 266.253 237.274 265.441 235.97C264.629 234.674 263.432 233.641 261.852 232.873C260.271 232.112 258.331 231.732 256.033 231.732C253.735 231.732 251.796 232.112 250.215 232.873C248.634 233.641 247.438 234.674 246.626 235.97C245.814 237.274 245.408 238.73 245.408 240.336C245.408 241.943 245.814 243.395 246.626 244.69C247.438 245.995 248.634 247.027 250.215 247.787C251.796 248.556 253.735 248.941 256.033 248.941ZM242.764 257.295V253.926L269.302 263.671V266.988L242.764 276.733V273.364L265.104 265.433V265.226L242.764 257.295ZM253.131 258.539V272.12H250.28V258.539H253.131ZM242.764 280.866H269.302V289.833C269.302 291.915 268.927 293.617 268.175 294.939C267.432 296.269 266.426 297.254 265.156 297.893C263.886 298.533 262.469 298.852 260.906 298.852C259.342 298.852 257.921 298.533 256.642 297.893C255.364 297.263 254.344 296.287 253.584 294.965C252.833 293.643 252.457 291.95 252.457 289.885V283.458H255.308V289.782C255.308 291.207 255.554 292.352 256.046 293.215C256.539 294.079 257.204 294.706 258.042 295.094C258.888 295.492 259.843 295.69 260.906 295.69C261.968 295.69 262.918 295.492 263.756 295.094C264.594 294.706 265.251 294.075 265.726 293.203C266.21 292.33 266.452 291.172 266.452 289.73V284.08H242.764V280.866Z" fill="#403126"/>
<path d="M281.717 178.172H195.286C192.439 178.172 190.131 180.48 190.131 183.327V330.445C190.131 333.292 192.439 335.6 195.286 335.6H281.717C284.564 335.6 286.872 333.292 286.872 330.445V183.327C286.872 180.48 284.564 178.172 281.717 178.172Z" stroke="#403126" stroke-width="3.00578" stroke-miterlimit="10"/>
<path d="M285.73 164.451H208.135C198.192 164.451 190.131 172.512 190.131 182.456V331.317C190.131 341.261 198.192 349.322 208.135 349.322H285.73C295.673 349.322 303.734 341.261 303.734 331.317V182.456C303.734 172.512 295.673 164.451 285.73 164.451Z" stroke="#403126" stroke-width="7.51445" stroke-miterlimit="10"/>
<path d="M69.1179 61.2476C71.7574 61.2476 73.8971 58.3071 73.8971 54.6799C73.8971 51.0527 71.7574 48.1123 69.1179 48.1123C66.4785 48.1123 64.3387 51.0527 64.3387 54.6799C64.3387 58.3071 66.4785 61.2476 69.1179 61.2476Z" fill="#E8F3F9"/>
<path d="M26.526 66.4175C32.718 66.4175 37.7376 61.1624 37.7376 54.68C37.7376 48.1975 32.718 42.9424 26.526 42.9424C20.334 42.9424 15.3145 48.1975 15.3145 54.68C15.3145 61.1624 20.334 66.4175 26.526 66.4175Z" fill="#E8F3F9"/>
<path d="M51.5491 105.778C56.9526 105.778 61.333 100.523 61.333 94.0403C61.333 87.5578 56.9526 82.3027 51.5491 82.3027C46.1457 82.3027 41.7653 87.5578 41.7653 94.0403C41.7653 100.523 46.1457 105.778 51.5491 105.778Z" fill="#E8F3F9"/>
<path d="M65.8717 61.6386C69.6898 61.6386 72.785 58.5434 72.785 54.7253C72.785 50.9072 69.6898 47.812 65.8717 47.812C62.0536 47.812 58.9584 50.9072 58.9584 54.7253C58.9584 58.5434 62.0536 61.6386 65.8717 61.6386Z" stroke="#403126" stroke-width="4.50867" stroke-linecap="round" stroke-linejoin="round"/>
<path d="M21.837 64.313C28.6598 64.313 34.1907 58.782 34.1907 51.9592C34.1907 45.1364 28.6598 39.6055 21.837 39.6055C15.0142 39.6055 9.48322 45.1364 9.48322 51.9592C9.48322 58.782 15.0142 64.313 21.837 64.313Z" stroke="#403126" stroke-width="6.01156" stroke-linecap="round" stroke-linejoin="round"/>
<path d="M46.8602 105.778C53.683 105.778 59.2139 100.247 59.2139 93.4246C59.2139 86.6018 53.683 81.0708 46.8602 81.0708C40.0374 81.0708 34.5064 86.6018 34.5064 93.4246C34.5064 100.247 40.0374 105.778 46.8602 105.778Z" stroke="#403126" stroke-width="6.01156" stroke-linecap="round" stroke-linejoin="round"/>
<path d="M77.1884 21.2555L107.592 8.48093L177.777 8" stroke="#403126" stroke-width="15.0289" stroke-linecap="round" stroke-linejoin="round"/>
<path d="M137.064 14.5679L137.424 68.1609" stroke="#403126" stroke-width="15.0289" stroke-linecap="round" stroke-linejoin="round"/>
<path d="M150.225 57.7876L124.496 57.9628C116.445 58.0176 109.963 64.5887 110.018 72.6397L110.163 93.9201C110.218 101.971 116.789 108.453 124.84 108.399L150.569 108.223C158.62 108.169 165.102 101.598 165.047 93.5466L164.902 72.2661C164.847 64.2151 158.276 57.7328 150.225 57.7876Z" fill="white"/>
<path d="M110.012 71.8877V67.5593C109.991 65.1422 110.928 62.8152 112.618 61.0864C114.307 59.3576 116.612 58.3672 119.029 58.3316L155.594 58.0911C156.797 58.0812 157.991 58.3087 159.106 58.7604C160.221 59.2122 161.236 59.8794 162.093 60.7239C162.951 61.5685 163.633 62.5737 164.101 63.6821C164.569 64.7905 164.814 65.9804 164.822 67.1836L165.092 108.453L110.207 108.829L110.042 84.7825" stroke="#403126" stroke-width="6.01156" stroke-linecap="round" stroke-linejoin="round"/>
<path d="M137.575 90.8542C149.139 90.773 160.607 92.9708 171.322 97.322C182.038 101.673 191.791 108.093 200.025 116.214C208.259 124.335 214.813 133.998 219.311 144.652C223.81 155.307 226.166 166.743 226.245 178.307L227.222 323.487C227.252 327.739 226.443 331.956 224.843 335.896C223.242 339.836 220.881 343.422 217.895 346.449C214.908 349.476 211.354 351.885 207.436 353.538C203.518 355.192 199.313 356.057 195.06 356.084L83.726 356.836C79.4716 356.867 75.2526 356.061 71.3101 354.461C67.3675 352.862 63.7788 350.501 60.7488 347.515C57.7188 344.528 55.307 340.974 53.6511 337.054C51.9952 333.135 51.1278 328.928 51.0983 324.674L50.1214 179.51C50.0422 167.946 52.2414 156.48 56.5935 145.767C60.9456 135.053 67.3654 125.302 75.4862 117.069C83.6071 108.837 93.2699 102.284 103.923 97.7865C114.576 93.2885 126.011 90.9329 137.575 90.8542V90.8542Z" fill="#F0ABF4"/>
<g opacity="0.5">
<path d="M224.081 179.585L225.028 321.518C224.988 330.014 221.576 338.145 215.542 344.126C209.508 350.106 201.346 353.445 192.851 353.409L166.295 353.59C174.79 353.626 182.952 350.286 188.986 344.306C195.02 338.326 198.432 330.194 198.472 321.698L197.525 179.766C197.224 136.633 164.461 101.149 122.17 95.1528C126.557 94.4806 130.987 94.129 135.425 94.1008C184.059 93.7701 223.75 132.049 224.081 179.585Z" fill="#CB2AD3"/>
</g>
<path d="M189.56 148.803L86.3742 149.505C80.3069 149.547 75.4218 154.499 75.4631 160.566L75.9167 227.203C75.958 233.27 80.9101 238.155 86.9774 238.114L190.163 237.411C196.231 237.37 201.116 232.418 201.075 226.351L200.621 159.714C200.58 153.647 195.628 148.762 189.56 148.803Z" fill="white"/>
<path d="M153.43 168.719L92.7434 169.14" stroke="#403126" stroke-width="3.00578" stroke-linecap="round" stroke-linejoin="round"/>
<path d="M124.8 181.539L92.8336 181.764" stroke="#403126" stroke-width="3.00578" stroke-linecap="round" stroke-linejoin="round"/>
<path d="M75.5953 179.179L75.4751 160.573C75.4632 159.131 75.7357 157.701 76.2771 156.364C76.8184 155.028 77.6179 153.811 78.6299 152.784C79.6419 151.756 80.8465 150.939 82.1748 150.377C83.5031 149.816 84.929 149.522 86.3711 149.512L189.575 148.821C191.017 148.811 192.446 149.085 193.782 149.628C195.118 150.171 196.334 150.973 197.36 151.986C198.386 152.999 199.202 154.205 199.761 155.534C200.321 156.863 200.613 158.29 200.621 159.732L201.072 226.385C201.082 227.827 200.807 229.257 200.264 230.592C199.721 231.928 198.92 233.144 197.906 234.17C196.893 235.196 195.687 236.012 194.358 236.571C193.029 237.131 191.603 237.423 190.161 237.431L86.9722 238.137C84.0611 238.153 81.2626 237.013 79.1915 234.967C77.1203 232.922 75.9458 230.137 75.926 227.226L75.7156 197.619" stroke="#403126" stroke-width="6.01156" stroke-miterlimit="10"/>
<path d="M57.4406 318.031V268.42" stroke="white" stroke-width="12.0231" stroke-linecap="round" stroke-linejoin="round"/>
<path d="M57.4406 214.317V194.764" stroke="white" stroke-width="12.0231" stroke-linecap="round" stroke-linejoin="round"/>
<path d="M54.9908 233.659C54.8705 215.625 54.585 197.59 54.6301 179.63C54.7202 142.764 78.7665 109.295 114.415 98.7898C132.087 93.6916 150.941 94.5077 168.107 101.114C185.272 107.72 199.808 119.755 209.503 135.385C221.195 154.562 221.691 174.911 221.842 196.403C222.127 238.483 223.345 280.685 222.698 322.751C222.443 338.606 211.066 350.915 195.03 351.576C189.439 351.816 183.804 351.576 178.198 351.696L104.556 352.192C97.7781 352.192 91.0301 352.448 84.222 352.327C68.3665 352.042 56.1781 340.47 55.6671 324.494C54.9006 303.904 55.3815 283.179 55.2463 262.56V255.662C55.2463 249.86 46.2289 249.845 46.2289 255.662L46.5896 319.97C46.6798 333.075 50.0763 345.144 60.9122 353.575C69.4486 360.203 79.2023 361.375 89.5422 361.315L164.687 360.804C185.622 360.668 210.961 364.576 224.938 345.068C235.638 330.13 231.686 306.234 231.565 288.92L231.009 206.562C230.859 185.897 232.212 164.827 224.457 145.184C217.667 127.829 205.797 112.928 190.4 102.43C175.002 91.9322 156.795 86.3263 138.159 86.3458C119.524 86.3652 101.328 92.0093 85.9526 102.539C70.5773 113.07 58.7384 127.996 51.985 145.364C42.3364 169.892 45.8081 198.537 45.9734 224.356V233.659C45.9734 239.46 54.9908 239.475 54.9908 233.659V233.659Z" fill="#403126"/>
<path d="M78.481 256.338V331.332" stroke="#403126" stroke-width="3.00578" stroke-miterlimit="10"/>
<path d="M198.066 256.338V331.332" stroke="#403126" stroke-width="3.00578" stroke-miterlimit="10"/>
</svg>
