<svg width="317" height="312" viewBox="0 0 317 312" fill="none" xmlns="http://www.w3.org/2000/svg">
<path opacity="0.4" d="M161.039 311.626C246.994 311.626 316.674 241.946 316.674 155.991C316.674 70.0361 246.994 0.355957 161.039 0.355957C75.0842 0.355957 5.40399 70.0361 5.40399 155.991C5.40399 241.946 75.0842 311.626 161.039 311.626Z" fill="#FFC4A4"/>
<path d="M261.287 133.206V146.395H92.5957V120.668H248.748C252.074 120.668 255.263 121.989 257.614 124.34C259.966 126.692 261.287 129.881 261.287 133.206V133.206Z" fill="#FFDEDE"/>
<path d="M288.522 145.789C288.163 178.801 274.798 210.339 251.327 233.556C227.856 256.774 196.175 269.796 163.161 269.796C130.147 269.796 98.4653 256.774 74.9945 233.556C51.5237 210.339 38.1581 178.801 37.7996 145.789C37.7996 76.5619 93.9855 80.4654 163.168 80.4654C232.351 80.4654 288.522 76.5619 288.522 145.789Z" fill="#AF143B"/>
<path d="M182.848 269.96C165.099 272.415 147.031 271.038 129.859 265.921C112.687 260.805 96.8115 252.068 83.301 240.299C69.7904 228.53 58.9589 214.002 51.5359 197.694C44.113 181.386 40.2711 163.677 40.2689 145.759C40.2689 76.5324 96.4549 80.4507 165.623 80.4507H168.447C114.538 81.0273 74.7346 87.4591 74.7346 145.759C74.7316 176.024 85.6751 205.267 105.546 228.095C125.416 250.922 152.872 265.791 182.848 269.96V269.96Z" fill="#91052D"/>
<path d="M286.289 147.726V149.751H101.305V83.6294C119.047 82.0473 139.348 82.417 160.95 82.417C230.177 82.417 286.289 78.4987 286.289 147.726V147.726Z" fill="white"/>
<path d="M274.15 94.9853V108.174H105.459V82.373H217.077C224.012 82.373 274.15 87.9916 274.15 94.9853Z" fill="#FFDEDE"/>
<path d="M99.0867 81.6776V147.814C99.0867 148.991 99.554 150.119 100.386 150.951C101.218 151.783 102.346 152.25 103.522 152.25H284.057C289.764 152.25 289.764 143.379 284.057 143.379H103.522L107.958 147.814V81.6776C107.958 75.9703 99.0867 75.9555 99.0867 81.6776V81.6776Z" fill="#403126"/>
<path d="M276.516 191.551C266.955 214.33 250.88 233.779 230.307 247.458C209.735 261.136 185.581 268.434 160.876 268.437C158.984 268.437 157.106 268.393 155.243 268.304C154.702 262.144 154.588 255.953 154.903 249.777C156.305 229.575 165.674 210.757 180.95 197.461C196.225 184.166 216.155 177.482 236.358 178.879C246.427 179.56 264.111 185.74 276.516 191.551Z" fill="#EA3D90"/>
<path d="M284.086 145.789C283.672 196.06 252.045 242.384 204.391 259.506C180.893 267.834 155.41 268.777 131.361 262.209C107.311 255.642 85.8447 241.878 69.8404 222.763C53.966 203.553 44.4356 179.895 42.5606 155.045C41.082 135.587 43.2703 112.816 59.6973 99.8049C74.6605 87.9763 96.0112 86.2464 114.405 85.374C138.372 84.2207 162.488 84.8122 186.485 84.8713C209.063 84.8713 234.229 84.1024 255.387 93.2401C277.137 102.644 283.924 123.492 284.116 145.789C284.116 151.496 292.987 151.511 292.987 145.789C292.78 124.556 287.28 103.043 268.798 90.549C251.498 78.7204 228.595 77.1679 208.324 76.4138C181.399 75.3936 154.238 75.6893 127.298 76.1625C105.622 76.5321 81.6098 77.1975 62.0778 87.7841C18.652 111.249 30.9242 177.667 51.7721 212.413C65.6774 235.278 86.2454 253.342 110.714 264.178C135.184 275.014 162.382 278.105 188.659 273.035C248.955 261.206 292.485 206.795 292.987 145.759C293.002 140.081 284.131 140.067 284.086 145.789V145.789Z" fill="#403126"/>
<path d="M178.501 228.057C178.309 228.559 178.412 228.205 178.856 227.303C179.299 226.401 179.876 225.188 180.438 224.153C182.513 220.253 184.991 216.581 187.831 213.197C196.634 202.526 209.2 195.644 222.932 193.975C228.536 193.31 228.61 184.424 222.932 185.104C211.257 186.494 200.172 191.002 190.84 198.153C181.508 205.305 174.273 214.838 169.896 225.75C167.811 231.058 176.387 233.365 178.442 228.101L178.501 228.057Z" fill="#FF8FCF"/>
<path d="M162.015 267.017C159.206 240.403 170.103 214.114 192.311 198.707C216.19 182.132 247.462 182.029 272.065 197.125C276.945 200.082 281.41 192.453 276.501 189.466C249.34 172.802 214.238 172.817 187.787 191.033C175.706 199.409 166.108 210.888 160.004 224.26C153.899 237.632 151.514 252.403 153.099 267.017C153.691 272.636 162.562 272.695 161.971 267.017H162.015Z" fill="#403126"/>
<path d="M217.846 211.556C222.247 211.556 225.816 207.988 225.816 203.587C225.816 199.185 222.247 195.617 217.846 195.617C213.445 195.617 209.876 199.185 209.876 203.587C209.876 207.988 213.445 211.556 217.846 211.556Z" fill="#FF8FCF"/>
<path d="M214.682 214.868C216.511 214.868 217.994 213.385 217.994 211.556C217.994 209.727 216.511 208.244 214.682 208.244C212.853 208.244 211.37 209.727 211.37 211.556C211.37 213.385 212.853 214.868 214.682 214.868Z" fill="#FF8FCF"/>
<path d="M230.103 197.849C231.933 197.849 233.415 196.366 233.415 194.537C233.415 192.708 231.933 191.225 230.103 191.225C228.274 191.225 226.791 192.708 226.791 194.537C226.791 196.366 228.274 197.849 230.103 197.849Z" fill="#FF8FCF"/>
<path d="M229.719 205.789C230.634 205.789 231.375 205.048 231.375 204.133C231.375 203.218 230.634 202.477 229.719 202.477C228.804 202.477 228.063 203.218 228.063 204.133C228.063 205.048 228.804 205.789 229.719 205.789Z" fill="#FF8FCF"/>
<path d="M226.791 214.247C227.706 214.247 228.447 213.506 228.447 212.591C228.447 211.676 227.706 210.935 226.791 210.935C225.877 210.935 225.135 211.676 225.135 212.591C225.135 213.506 225.877 214.247 226.791 214.247Z" fill="#FF8FCF"/>
<path d="M283.347 150.875L99.8999 197.14L73.8326 203.705C68.3027 205.109 70.6389 213.67 76.1983 212.266L259.645 165.957L285.698 159.377C291.243 157.987 288.892 149.426 283.347 150.831V150.875Z" fill="#403126"/>
<path d="M46.2203 247.094C64.5977 242.458 76.6615 227.466 73.1656 213.61C69.6697 199.754 51.938 192.28 33.5607 196.916C15.1833 201.553 3.11955 216.544 6.61542 230.4C10.1113 244.257 27.843 251.731 46.2203 247.094Z" fill="white"/>
<path d="M68.8645 214.75C74.7049 242.917 17.691 257.155 10.8747 229.181C4.05848 201.206 60.6436 187.233 68.8645 214.75C70.5058 220.206 79.0667 217.884 77.4255 212.399C71.5112 192.689 47.8539 187.81 30.1849 193.177C14.3494 198.086 -2.44726 213.36 2.32855 231.576C12.5307 270.596 85.5872 251.877 77.4255 212.443C76.2722 206.854 67.7112 209.22 68.8645 214.75Z" fill="#403126"/>
</svg>
