<svg width="130" height="130" viewBox="0 0 130 130" fill="none" xmlns="http://www.w3.org/2000/svg">
<g clip-path="url(#clip0_35_51)">
<path d="M104.681 13.9323C105.242 13.9323 105.797 14.149 106.215 14.5672L115.431 23.7847C116.122 24.4759 116.265 25.5441 115.779 26.3913L100.101 53.8313C94.1009 64.3315 86.723 73.9932 78.1707 82.5433L41.6953 119.019C40.8827 119.831 39.444 119.831 38.6314 119.019L10.9812 91.3685C10.134 90.5213 10.134 89.1519 10.9812 88.3047L47.4545 51.8292C56.0068 43.277 65.6663 35.8969 76.1665 29.8993L103.607 14.2184C103.942 14.0255 104.313 13.9323 104.681 13.9323ZM111.195 25.6784L104.319 18.8011L78.3181 33.6608C68.1538 39.47 58.7998 46.6138 50.5205 54.8931L15.5791 89.8366L40.1633 114.423L75.1069 79.4816C83.3862 71.2024 90.5279 61.8484 96.337 51.6819L111.195 25.6784Z" fill="black"/>
<path d="M121.307 2.78512e-05C123.612 2.80527e-05 125.781 0.89491 127.417 2.52216L127.426 2.52865C130.839 5.94349 130.839 11.4406 127.461 14.8186L115.431 26.8485C115.023 27.2559 114.473 27.4834 113.899 27.4834C113.325 27.4834 112.772 27.2559 112.367 26.8485L103.151 17.6311C102.304 16.7839 102.304 15.4145 103.151 14.5673L115.179 2.53949C116.815 0.901408 118.991 2.76487e-05 121.307 2.78512e-05ZM113.897 22.2528L124.395 11.7548C126.085 10.0647 126.082 7.31506 124.395 5.62498L124.371 5.60115C122.733 3.96307 119.879 3.96523 118.241 5.60115L107.745 16.097L113.897 22.2528Z" fill="black"/>
<path d="M12.5132 87.6698C13.0678 87.6698 13.6225 87.8822 14.0451 88.3047L41.6953 115.955C42.5425 116.802 42.5425 118.172 41.6953 119.019L37.0519 123.664C28.6058 132.113 14.8554 132.113 6.40934 123.664C-2.11042 115.142 -2.11041 101.399 6.33567 92.9503L10.9812 88.3047C11.4059 87.8822 11.9606 87.6698 12.5132 87.6698ZM37.0995 117.487L12.5132 92.9004L9.39949 96.0141C2.64132 102.772 2.64132 113.769 9.39949 120.529C16.2313 127.359 27.2299 127.359 33.9881 120.6L37.0995 117.487Z" fill="black"/>
<path d="M12.5153 99.9598C12.9248 99.9598 13.3408 100.077 13.7092 100.32C14.7059 100.98 14.9811 102.324 14.3202 103.323C12.0885 106.699 12.6301 111.468 15.5813 114.421C16.4285 115.268 16.4285 116.638 15.5813 117.485C14.7341 118.332 13.3647 118.332 12.5175 117.485C8.06691 113.034 7.30637 106.074 10.706 100.933C11.1242 100.302 11.8133 99.9598 12.5153 99.9598Z" fill="black"/>
<path d="M69.3498 46.1912C69.924 46.1912 70.4765 46.4188 70.8817 46.8261L83.1695 59.1161C84.0167 59.9633 84.0167 61.3327 83.1695 62.1799L52.4468 92.9048C51.6342 93.7173 50.1955 93.7173 49.383 92.9048L37.093 80.6148C36.2458 79.7676 36.2458 78.3982 37.093 77.551L67.8157 46.8261C68.2252 46.4209 68.7756 46.1912 69.3498 46.1912ZM78.5759 60.648L69.352 51.4218L41.6931 79.0829L50.9192 88.309L78.5759 60.648Z" fill="black"/>
<path d="M69.3498 58.4813C69.9045 58.4813 70.4592 58.6937 70.8817 59.1162C71.7289 59.9634 71.7289 61.3328 70.8817 62.18L62.1886 70.8731C61.3414 71.7203 59.972 71.7203 59.1248 70.8731C58.2776 70.0259 58.2776 68.6565 59.1248 67.8093L67.8179 59.1162C68.2426 58.6937 68.7973 58.4813 69.3498 58.4813Z" fill="black"/>
<path d="M54.1586 73.6747C54.7132 73.6747 55.2679 73.887 55.6905 74.3095C56.5377 75.1567 56.5377 76.5261 55.6905 77.3734L53.5237 79.5401C52.6765 80.3873 51.3071 80.3873 50.4599 79.5401C49.6127 78.6929 49.6127 77.3235 50.4599 76.4763L52.6266 74.3095C53.0492 73.887 53.6039 73.6747 54.1586 73.6747Z" fill="black"/>
<path d="M32.4843 83.061C33.0585 83.061 33.611 83.2885 34.0162 83.6959L46.304 95.9858C46.7114 96.3932 46.9389 96.9436 46.9389 97.5178C46.9389 98.092 46.7114 98.6445 46.304 99.0497L40.159 105.192C39.3118 106.04 37.9424 106.04 37.0952 105.192L24.8074 92.9047C23.9602 92.0575 23.9602 90.6881 24.8074 89.8409L30.9524 83.6959C31.3576 83.2907 31.9101 83.061 32.4843 83.061ZM41.7083 97.5178L32.4843 88.2916L29.4031 91.3728L38.6271 100.597L41.7083 97.5178Z" fill="black"/>
<path d="M108.328 19.5054C108.883 19.5054 109.437 19.7178 109.86 20.1403C110.707 20.9875 110.707 22.3569 109.86 23.2041L101.193 31.8712C100.346 32.7184 98.9761 32.7184 98.1289 31.8712C97.2817 31.024 97.2817 29.6546 98.1289 28.8074L106.796 20.1403C107.219 19.7178 107.773 19.5054 108.328 19.5054Z" fill="black"/>
</g>
<defs>
<clipPath id="clip0_35_51">
<rect width="130" height="130" fill="white" transform="translate(130 130) rotate(-180)"/>
</clipPath>
</defs>
</svg>
