<svg width="317" height="336" viewBox="0 0 317 336" fill="none" xmlns="http://www.w3.org/2000/svg">
<path d="M293.763 132.384C293.763 132.384 279.014 122.438 254.28 116.69C265.335 109.336 273.73 98.619 278.222 86.1245C282.714 73.6299 283.065 60.0213 279.224 47.3116C275.383 34.6019 267.553 23.466 256.892 15.5511C246.231 7.63628 233.306 3.36279 220.029 3.36279C206.751 3.36279 193.826 7.63628 183.166 15.5511C172.505 23.466 164.675 34.6019 160.834 47.3116C156.992 60.0213 157.344 73.6299 161.836 86.1245C166.328 98.619 174.723 109.336 185.777 116.69C173.843 119.544 164.892 122.876 158.189 126.208C154.858 94.8105 128.692 70.0766 96.3497 70.0766C83.0817 70.066 70.163 74.3278 59.5058 82.231C48.8486 90.1343 41.0193 101.259 37.1771 113.958C33.3348 126.658 33.6836 140.257 38.172 152.743C42.6604 165.228 51.0498 175.937 62.0982 183.283C37.3643 188.992 22.6155 198.977 22.6155 198.977C13.5753 204.208 5.96716 216.58 5.96716 227.043V288.882C5.98289 293.923 7.99239 298.753 11.5569 302.318C15.1214 305.882 19.9515 307.892 24.9924 307.908H167.707C172.748 307.892 177.578 305.882 181.142 302.318C184.707 298.753 186.716 293.923 186.732 288.882V241.314H291.396C296.437 241.298 301.267 239.289 304.832 235.724C308.396 232.16 310.406 227.33 310.421 222.289V160.449C310.421 149.977 303.33 137.137 293.763 132.384V132.384Z" fill="#E7E7E7"/>
<path d="M307.925 160.449V222.289C307.909 227.33 305.9 232.16 302.335 235.724C298.771 239.289 293.941 241.298 288.9 241.314H184.246V288.892C184.227 293.936 182.214 298.767 178.646 302.332C175.078 305.896 170.244 307.904 165.201 307.918H22.4962C17.4544 307.904 12.6229 305.896 9.05776 302.331C5.49267 298.766 3.48401 293.934 3.47089 288.892V262.885C11.4271 265.978 20.0496 267.599 28.523 269.141C60.7655 274.939 98.2392 278.549 122.277 256.302C133.585 245.849 140.477 230.633 153.724 222.796C166.971 214.959 183.221 216.242 198.398 214.333C235.444 209.688 267.856 184.835 288.343 153.667C291.811 148.387 294.995 142.926 297.88 137.307C303.907 143.403 307.925 152.583 307.925 160.449V160.449Z" fill="#CED0D0"/>
<path d="M167.707 316.381H24.9924C18.3665 316.373 12.0141 313.738 7.32884 309.052C2.64356 304.367 0.00789592 298.015 0 291.389L0 229.539C0 217.336 8.53303 202.876 19.4529 196.411C21.0442 195.357 31.6955 188.584 49.1992 183.105C39.5032 173.714 32.8317 161.642 30.0395 148.435C27.2472 135.229 28.4612 121.49 33.5261 108.978C38.5909 96.4655 47.276 85.7504 58.4685 78.2051C69.661 70.6598 82.8514 66.6279 96.3497 66.6258C111.861 66.6512 126.901 71.9655 138.984 81.6915C151.068 91.4175 159.474 104.973 162.814 120.121C165.95 118.862 169.315 117.671 172.908 116.551C163.198 107.161 156.513 95.085 153.712 81.8709C150.91 68.6569 152.119 54.9071 157.183 42.3846C162.247 29.8621 170.937 19.1376 182.136 11.586C193.336 4.03442 206.536 0 220.044 0C233.552 0 246.752 4.03442 257.951 11.586C269.151 19.1376 277.84 29.8621 282.905 42.3846C287.969 54.9071 289.178 68.6569 286.376 81.8709C283.574 95.085 276.89 107.161 267.179 116.551C284.196 121.882 294.738 128.485 296.776 129.758C307.796 135.477 316.389 149.987 316.389 162.985V224.755C316.389 231.387 313.756 237.747 309.07 242.438C304.384 247.13 298.027 249.77 291.396 249.778H192.699V291.389C192.691 298.015 190.056 304.367 185.37 309.052C180.685 313.738 174.333 316.373 167.707 316.381V316.381ZM96.3497 78.5601C81.5422 78.5785 67.346 84.4669 56.8727 94.9345C46.3995 105.402 40.5035 119.595 40.4772 134.403C40.4412 143.591 42.6956 152.644 47.0366 160.743C51.3776 168.841 57.6684 175.73 65.3403 180.787L77.0061 188.455L63.411 191.598C40.2286 196.909 26.0964 206.327 25.9571 206.416L25.609 206.635C18.1998 210.931 11.9343 221.414 11.9343 229.539V291.389C11.9396 294.85 13.317 298.169 15.7648 300.616C18.2125 303.064 21.5308 304.442 24.9924 304.447H167.707C171.169 304.442 174.487 303.064 176.935 300.616C179.382 298.169 180.76 294.85 180.765 291.389V237.843H291.396C294.863 237.838 298.186 236.457 300.634 234.002C303.083 231.548 304.457 228.222 304.454 224.755V162.946C304.454 154.393 298.219 143.771 291.108 140.221L290.76 140.042L290.441 139.823C290.223 139.684 276.11 130.335 252.958 124.995L239.362 121.852L251.028 114.184C258.701 109.128 264.992 102.239 269.333 94.1399C273.674 86.0412 275.928 76.9881 275.891 67.7993C275.891 60.4621 274.446 53.1966 271.638 46.4179C268.831 39.6391 264.715 33.4798 259.527 28.2915C254.339 23.1033 248.179 18.9878 241.4 16.1799C234.622 13.372 227.356 11.9269 220.019 11.9269C212.682 11.9269 205.416 13.372 198.637 16.1799C191.859 18.9878 185.699 23.1033 180.511 28.2915C175.323 33.4798 171.207 39.6391 168.4 46.4179C165.592 53.1966 164.146 60.4621 164.146 67.7993C164.11 76.9881 166.364 86.0412 170.705 94.1399C175.046 102.239 181.337 109.128 189.01 114.184L200.536 121.752L187.13 124.975C178.048 127.002 169.222 130.037 160.815 134.025L153.157 137.874L152.252 129.321C150.866 115.442 144.384 102.571 134.058 93.1946C123.733 83.8186 110.297 78.6043 96.3497 78.5601V78.5601Z" fill="#426572"/>
<path d="M86.3746 96.3326C91.8001 94.4476 97.5524 93.6862 103.282 94.0949C107.11 94.3734 107.1 88.4062 103.282 88.1277C97.017 87.6931 90.7291 88.5251 84.7933 90.5743C81.1732 91.7975 82.7247 97.5359 86.3845 96.3326H86.3746Z" fill="white"/>
<path d="M76.3299 167.819C71.5248 164.317 67.5178 159.836 64.5741 154.67C61.6304 149.504 59.817 143.773 59.2539 137.854C57.9809 124.875 63.1027 112.991 72.67 104.368C75.5243 101.782 71.2876 97.5755 68.4532 100.151C46.3151 120.211 49.2092 155.765 73.3165 172.971C76.4492 175.208 79.4328 169.987 76.3 167.819H76.3299Z" fill="white"/>
<path d="M167.409 334.492C167.409 334.492 253.763 291.319 253.763 226.546V140.221L167.409 118.63L81.0638 140.221V226.576C81.0638 291.319 167.409 334.492 167.409 334.492V334.492Z" fill="#A9EA9C"/>
<path d="M253.763 185.532V221.623C253.763 286.397 167.409 329.569 167.409 329.569C167.409 329.569 81.0638 286.416 81.0638 221.633V185.532C81.0638 250.305 167.409 293.478 167.409 293.478C167.409 293.478 253.763 250.305 253.763 185.532V185.532Z" fill="#91CD86"/>
<path d="M167.409 335.536L164.743 334.153C148.816 325.738 133.915 315.51 120.338 303.671C90.7604 277.814 75.1265 249.171 75.1265 220.917V129.908L167.448 106.825L259.77 129.908V220.917C259.77 249.171 244.136 277.784 214.559 303.671C200.954 315.516 186.023 325.744 170.064 334.153L167.409 335.536ZM87.0309 139.226V220.917C87.0309 275.069 153.177 314.293 167.418 322.1C181.64 314.283 247.806 274.989 247.806 220.917V139.226L167.418 119.127L87.0309 139.226Z" fill="#426572"/>
<path d="M166.546 245.699C164.478 245.699 162.668 245.234 161.117 244.303C159.566 243.372 158.79 241.873 158.79 239.805C158.79 232.98 158.635 225.586 158.325 217.623C158.015 209.661 157.653 201.698 157.239 193.735C156.929 185.773 156.774 178.379 156.774 171.554C156.774 168.865 157.704 166.797 159.566 165.349C161.427 163.798 163.754 163.022 166.546 163.022C169.131 163.022 171.355 163.798 173.216 165.349C175.181 166.797 176.163 168.865 176.163 171.554C176.163 178.379 176.008 185.773 175.698 193.735C175.388 201.698 175.026 209.661 174.612 217.623C174.302 225.586 174.147 232.98 174.147 239.805C174.147 241.873 173.268 243.372 171.51 244.303C169.752 245.234 168.097 245.699 166.546 245.699ZM166.701 277.963C163.702 277.963 161.169 276.929 159.1 274.861C157.136 272.689 156.153 270.208 156.153 267.416C156.153 264.52 157.136 262.038 159.1 259.97C161.169 257.902 163.702 256.868 166.701 256.868C169.493 256.868 171.923 257.902 173.991 259.97C176.06 262.038 177.094 264.52 177.094 267.416C177.094 270.208 176.06 272.689 173.991 274.861C171.923 276.929 169.493 277.963 166.701 277.963Z" fill="white"/>
</svg>
